<?xml version="1.0" encoding="utf-8"?>
<!-- Generator: Adobe Illustrator 16.0.0, SVG Export Plug-In . SVG Version: 6.00 Build 0)  -->
<!DOCTYPE svg PUBLIC "-//W3C//DTD SVG 1.1//EN" "http://www.w3.org/Graphics/SVG/1.1/DTD/svg11.dtd">
<svg version="1.1" id="Layer_1" xmlns="http://www.w3.org/2000/svg" xmlns:xlink="http://www.w3.org/1999/xlink" x="0px" y="0px"
	 width="792px" height="720px" viewBox="0 0 792 720" enable-background="new 0 0 792 720" xml:space="preserve">
<image display="none" overflow="visible" enable-background="new    " width="585" height="576" xlink:href="../thing.jpg"  transform="matrix(0.953 0 0 0.6771 119 57.9995)">
</image>
<line fill="none" stroke="#FF0000" stroke-width="0.5233" stroke-miterlimit="10" x1="291" y1="90.5" x2="637.5" y2="90.5"/>
<line fill="none" stroke="#FF0000" stroke-width="0.5417" stroke-miterlimit="10" x1="222.013" y1="204.25" x2="574.203" y2="204.25"/>
<line fill="none" stroke="#FF0000" stroke-width="0.5739" stroke-miterlimit="10" x1="256.814" y1="155.5" x2="629.886" y2="155.5"/>
<line fill="none" stroke="#FF0000" stroke-width="0.6876" stroke-miterlimit="10" x1="159.37" y1="285.5" x2="574.203" y2="285.5"/>
<line fill="none" stroke="#FF0000" stroke-width="0.5859" stroke-miterlimit="10" x1="222.013" y1="123" x2="622.926" y2="123"/>
<line fill="none" stroke="#FF0000" stroke-width="0.6886" stroke-miterlimit="10" x1="159.37" y1="366.75" x2="593.692" y2="366.75"/>
<line fill="none" stroke="#FF0000" stroke-width="0.566" stroke-miterlimit="10" x1="174.682" y1="334.25" x2="556.106" y2="334.25"/>
<line fill="none" stroke="#FF0000" stroke-width="0.5514" stroke-miterlimit="10" x1="267.95" y1="106.75" x2="629.886" y2="106.75"/>
<line fill="none" stroke="#FF0000" stroke-width="0.4843" stroke-miterlimit="10" x1="206.7" y1="236.75" x2="539.402" y2="236.75"/>
<line fill="none" stroke="#FF0000" stroke-width="0.5561" stroke-miterlimit="10" x1="227" y1="188" x2="593.692" y2="188"/>
<line fill="none" stroke="#FF0000" stroke-width="0.6764" stroke-miterlimit="10" x1="166.5" y1="318" x2="596.477" y2="318"/>
<line fill="none" stroke="#FF0000" stroke-width="0.6048" stroke-miterlimit="10" x1="222.013" y1="139.25" x2="622.926" y2="139.25"/>
<line fill="none" stroke="#FF0000" stroke-width="0.5776" stroke-miterlimit="10" x1="132.243" y1="399.25" x2="504.601" y2="399.25"/>
<line fill="none" stroke="#FF0000" stroke-width="0.6216" stroke-miterlimit="10" x1="174.682" y1="350.5" x2="593.692" y2="350.5"/>
<line fill="none" stroke="#FF0000" stroke-width="0.5739" stroke-miterlimit="10" x1="256.814" y1="171.75" x2="629.886" y2="171.75"/>
<line fill="none" stroke="#FF0000" stroke-width="0.711" stroke-miterlimit="10" x1="166.5" y1="301.75" x2="596.477" y2="301.75"/>
<line fill="none" stroke="#FF0000" stroke-width="0.4938" stroke-miterlimit="10" x1="174.682" y1="253" x2="519" y2="253"/>
<line fill="none" stroke="#FF0000" stroke-width="0.6659" stroke-miterlimit="10" x1="141.273" y1="383" x2="574.203" y2="383"/>
<line fill="none" stroke="#FF0000" stroke-width="0.5245" stroke-miterlimit="10" x1="206.7" y1="220.5" x2="556.106" y2="220.5"/>
<line fill="none" stroke="#FF0000" stroke-width="0.8881" stroke-miterlimit="10" x1="124" y1="448" x2="671" y2="448"/>
<line fill="none" stroke="#FF0000" stroke-width="0.4869" stroke-miterlimit="10" x1="132.243" y1="415.5" x2="494.855" y2="415.5"/>
<line fill="none" stroke="#FF0000" stroke-width="0.8854" stroke-miterlimit="10" x1="124" y1="58" x2="671" y2="58"/>
<line fill="none" stroke="#FF0000" stroke-width="0.7048" stroke-miterlimit="10" x1="222.013" y1="74.25" x2="637.5" y2="74.25"/>
<line fill="none" stroke="#FF0000" stroke-width="0.5994" stroke-miterlimit="10" x1="152.5" y1="431.75" x2="539.402" y2="431.75"/>
<line fill="none" stroke="#FF0000" stroke-width="0.5136" stroke-miterlimit="10" x1="159.37" y1="269.25" x2="504.601" y2="269.25"/>
<line fill="none" stroke="#14A049" stroke-width="1.1799" stroke-miterlimit="10" x1="397.5" y1="58" x2="397.5" y2="448"/>
<line fill="none" stroke="#FF0000" stroke-width="1.1799" stroke-miterlimit="10" x1="671" y1="58" x2="671" y2="448"/>
<line fill="none" stroke="#FF0000" stroke-width="1.1799" stroke-miterlimit="10" x1="124" y1="58" x2="124" y2="448"/>
<line fill="none" stroke="#14A049" stroke-width="1.0171" stroke-miterlimit="10" x1="166.5" y1="431.75" x2="166.5" y2="448"/>
<line fill="none" stroke="#14A049" stroke-width="1.0171" stroke-miterlimit="10" x1="152.5" y1="415.5" x2="152.5" y2="431.75"/>
<line fill="none" stroke="#14A049" stroke-width="1.0171" stroke-miterlimit="10" x1="132.243" y1="399.25" x2="132.243" y2="415.5"/>
<line fill="none" stroke="#14A049" stroke-width="1.0171" stroke-miterlimit="10" x1="141.273" y1="383" x2="141.273" y2="399.25"/>
<line fill="none" stroke="#14A049" stroke-width="1.0171" stroke-miterlimit="10" x1="159.37" y1="367" x2="159.37" y2="383.25"/>
<line fill="none" stroke="#14A049" stroke-width="1.0171" stroke-miterlimit="10" x1="174.682" y1="350.5" x2="174.682" y2="366.75"/>
<line fill="none" stroke="#14A049" stroke-width="1.0171" stroke-miterlimit="10" x1="201.131" y1="334.25" x2="201.131" y2="350.5"/>
<line fill="none" stroke="#14A049" stroke-width="1.0171" stroke-miterlimit="10" x1="174.682" y1="318" x2="174.682" y2="334.25"/>
<line fill="none" stroke="#14A049" stroke-width="1.0171" stroke-miterlimit="10" x1="166.5" y1="301.75" x2="166.5" y2="318"/>
<line fill="none" stroke="#14A049" stroke-width="1.0171" stroke-miterlimit="10" x1="189.5" y1="285.5" x2="189.5" y2="301.75"/>
<line fill="none" stroke="#14A049" stroke-width="1.0171" stroke-miterlimit="10" x1="159.37" y1="269.25" x2="159.37" y2="285.5"/>
<line fill="none" stroke="#14A049" stroke-width="1.0171" stroke-miterlimit="10" x1="174.682" y1="253" x2="174.682" y2="269.25"/>
<line fill="none" stroke="#14A049" stroke-width="1.0171" stroke-miterlimit="10" x1="218" y1="236.75" x2="218" y2="253"/>
<line fill="none" stroke="#14A049" stroke-width="1.0171" stroke-miterlimit="10" x1="206.7" y1="220.5" x2="206.7" y2="236.75"/>
<line fill="none" stroke="#14A049" stroke-width="1.0171" stroke-miterlimit="10" x1="222.013" y1="204.25" x2="222.013" y2="220.5"/>
<line fill="none" stroke="#14A049" stroke-width="1.0171" stroke-miterlimit="10" x1="227" y1="188" x2="227" y2="204.25"/>
<line fill="none" stroke="#14A049" stroke-width="1.0171" stroke-miterlimit="10" x1="256.814" y1="171.75" x2="256.814" y2="188"/>
<line fill="none" stroke="#14A049" stroke-width="1.0171" stroke-miterlimit="10" x1="267.95" y1="155.5" x2="267.95" y2="171.75"/>
<line fill="none" stroke="#14A049" stroke-width="1.0171" stroke-miterlimit="10" x1="256.814" y1="139.25" x2="256.814" y2="155.5"/>
<line fill="none" stroke="#14A049" stroke-width="1.0171" stroke-miterlimit="10" x1="222.013" y1="123" x2="222.013" y2="139.25"/>
<line fill="none" stroke="#14A049" stroke-width="1.0171" stroke-miterlimit="10" x1="267.95" y1="106.75" x2="267.95" y2="123"/>
<line fill="none" stroke="#14A049" stroke-width="1.0171" stroke-miterlimit="10" x1="291" y1="90.5" x2="291" y2="106.75"/>
<line fill="none" stroke="#14A049" stroke-width="1.0171" stroke-miterlimit="10" x1="311" y1="74.25" x2="311" y2="90.5"/>
<line fill="none" stroke="#14A049" stroke-width="1.0171" stroke-miterlimit="10" x1="222.013" y1="58" x2="222.013" y2="74.25"/>
<line fill="none" stroke="#14A049" stroke-width="1.0171" stroke-miterlimit="10" x1="539.402" y1="431.75" x2="539.402" y2="448"/>
<line fill="none" stroke="#14A049" stroke-width="1.0171" stroke-miterlimit="10" x1="494.855" y1="415.5" x2="494.855" y2="431.75"/>
<line fill="none" stroke="#14A049" stroke-width="1.0171" stroke-miterlimit="10" x1="478.5" y1="399.25" x2="478.5" y2="415.5"/>
<line fill="none" stroke="#14A049" stroke-width="1.0171" stroke-miterlimit="10" x1="504.601" y1="383" x2="504.601" y2="399.25"/>
<line fill="none" stroke="#14A049" stroke-width="1.0171" stroke-miterlimit="10" x1="574.203" y1="367" x2="574.203" y2="383.25"/>
<line fill="none" stroke="#14A049" stroke-width="1.0171" stroke-miterlimit="10" x1="593.692" y1="350.5" x2="593.692" y2="366.75"/>
<line fill="none" stroke="#14A049" stroke-width="1.0171" stroke-miterlimit="10" x1="539.402" y1="334.25" x2="539.402" y2="350.5"/>
<line fill="none" stroke="#14A049" stroke-width="1.0171" stroke-miterlimit="10" x1="556.106" y1="318" x2="556.106" y2="334.25"/>
<line fill="none" stroke="#14A049" stroke-width="1.0171" stroke-miterlimit="10" x1="596.477" y1="301.75" x2="596.477" y2="318"/>
<line fill="none" stroke="#14A049" stroke-width="1.0171" stroke-miterlimit="10" x1="574.203" y1="285.5" x2="574.203" y2="301.75"/>
<line fill="none" stroke="#14A049" stroke-width="1.0171" stroke-miterlimit="10" x1="494.855" y1="269.25" x2="494.855" y2="285.5"/>
<line fill="none" stroke="#14A049" stroke-width="1.0171" stroke-miterlimit="10" x1="637.5" y1="74.25" x2="637.5" y2="90.5"/>
<line fill="none" stroke="#14A049" stroke-width="1.0171" stroke-miterlimit="10" x1="504.601" y1="253" x2="504.601" y2="269.25"/>
<line fill="none" stroke="#14A049" stroke-width="1.0171" stroke-miterlimit="10" x1="519" y1="236.75" x2="519" y2="253"/>
<line fill="none" stroke="#14A049" stroke-width="1.0171" stroke-miterlimit="10" x1="539.402" y1="220.5" x2="539.402" y2="236.75"/>
<line fill="none" stroke="#14A049" stroke-width="1.0171" stroke-miterlimit="10" x1="556.106" y1="204.25" x2="556.106" y2="220.5"/>
<line fill="none" stroke="#14A049" stroke-width="1.0171" stroke-miterlimit="10" x1="574.203" y1="188" x2="574.203" y2="204.25"/>
<line fill="none" stroke="#14A049" stroke-width="1.0171" stroke-miterlimit="10" x1="593.692" y1="171.75" x2="593.692" y2="188"/>
<line fill="none" stroke="#14A049" stroke-width="1.0171" stroke-miterlimit="10" x1="629.886" y1="155.5" x2="629.886" y2="171.75"/>
<line fill="none" stroke="#14A049" stroke-width="1.0171" stroke-miterlimit="10" x1="622.926" y1="139.25" x2="622.926" y2="155.5"/>
<line fill="none" stroke="#14A049" stroke-width="1.0171" stroke-miterlimit="10" x1="614.573" y1="123" x2="614.573" y2="139.25"/>
<line fill="none" stroke="#14A049" stroke-width="1.0171" stroke-miterlimit="10" x1="622.926" y1="106.75" x2="622.926" y2="123"/>
<line fill="none" stroke="#14A049" stroke-width="1.0171" stroke-miterlimit="10" x1="629.886" y1="90.5" x2="629.886" y2="106.75"/>
<line fill="none" stroke="#14A049" stroke-width="1.0171" stroke-miterlimit="10" x1="614.573" y1="58" x2="614.573" y2="74.25"/>
</svg>
