<?xml version="1.0" encoding="utf-8"?>
<!-- Generator: Adobe Illustrator 16.0.0, SVG Export Plug-In . SVG Version: 6.00 Build 0)  -->
<!DOCTYPE svg PUBLIC "-//W3C//DTD SVG 1.1//EN" "http://www.w3.org/Graphics/SVG/1.1/DTD/svg11.dtd">
<svg version="1.1" id="Layer_1" xmlns="http://www.w3.org/2000/svg" xmlns:xlink="http://www.w3.org/1999/xlink" x="0px" y="0px"
	 width="792px" height="720px" viewBox="0 0 792 720" enable-background="new 0 0 792 720" xml:space="preserve">
<path fill-rule="evenodd" clip-rule="evenodd" fill="none" stroke="#231F20" stroke-miterlimit="10" d="M375.215,102.308
	c1.496-0.091,2.094-1.339,2.935-2.162c10.853-10.6,21.643-21.263,32.513-31.844c4.548-4.428,10.637-4.462,14.64-0.27
	c4.028,4.219,3.767,10.162-0.775,14.643c-15.67,15.463-31.351,30.916-47.104,46.295c-1.856,1.812-2.669,3.627-2.635,6.252
	c0.143,10.836,0.048,21.676,0.077,32.514c0.004,1.207-0.3,2.469,0.525,4.104c4.009-3.709,7.9-7.271,11.746-10.883
	c2.827-2.655,5.544-5.428,8.395-8.056c4.655-4.291,11.143-4.373,15.021-0.277c3.93,4.15,3.519,10.461-1.159,14.901
	c-10.833,10.284-21.739,20.493-32.616,30.732c-0.992,0.935-1.957,1.791-1.951,3.405c0.046,14.468,0.026,28.937,0.026,43.405
	c1.345,0.322,1.75-0.706,2.314-1.288c22.699-23.424,45.36-46.887,68.095-70.277c1.489-1.532,1.541-3.155,1.54-4.984
	c-0.008-22.133-0.027-44.265,0.007-66.398c0.014-8.394,7.737-13.56,14.701-9.856c4.203,2.236,5.591,6.031,5.582,10.574
	c-0.026,14.489-0.02,28.978,0.011,43.466c0.002,1.192-0.321,2.452,0.424,3.792c2.788-1.983,4.66-4.729,6.926-7.057
	c12.563-12.917,25.065-25.896,37.561-38.879c2.021-2.099,4.188-3.879,7.164-4.339c4.207-0.649,8.457,1.439,10.392,5.069
	c2.172,4.078,1.593,8.497-1.742,11.965c-8.221,8.55-16.499,17.046-24.747,25.57c-6.662,6.885-13.316,13.776-19.964,20.675
	c-0.536,0.556-1.507,1.071-1.27,1.878c0.343,1.169,1.55,0.652,2.368,0.655c14.375,0.034,28.75,0.002,43.125,0.039
	c5.776,0.015,9.813,2.765,11.052,7.348c1.856,6.871-2.965,12.89-10.474,12.904c-20.878,0.04-41.756,0.067-62.633-0.047
	c-2.859-0.016-4.849,0.78-6.846,2.859c-21.972,22.859-44.043,45.621-66.082,68.417c-0.619,0.642-1.17,1.351-1.729,2.002
	c0.706,1.172,1.723,0.739,2.552,0.743c12.892,0.058,25.784,0.043,38.675,0.145c1.983,0.015,3.409-0.548,4.779-2.008
	c10.064-10.726,20.241-21.347,30.301-32.078c4.526-4.829,10.723-5.408,15.188-1.435c3.59,3.194,4.34,10.852-0.326,15.279
	c-6.506,6.174-12.43,12.961-18.572,19.454c0.813,1.276,1.821,0.823,2.638,0.827c11.408,0.057,22.817,0.014,34.226,0.141
	c2.253,0.025,3.825-0.689,5.384-2.265c15.481-15.656,31.043-31.234,46.542-46.873c2.756-2.781,5.902-4.338,9.825-3.511
	c7.441,1.569,10.589,9.987,5.941,16.034c-1.727,2.246-3.87,4.177-5.877,6.199c-9.164,9.229-18.351,18.436-27.514,27.664
	c-0.761,0.766-1.755,1.397-2.057,2.593c1.272,0.89,2.56,0.5,3.754,0.503c18.596,0.051,37.191,0.028,55.787,0.102
	c8.066,0.031,12.977,6.728,10.241,13.78c-1.524,3.933-4.785,6.14-9.311,6.141c-19.052,0.004-38.104-0.033-57.156-0.023
	c-1.193,0.001-2.45-0.33-3.912,0.43c2.229,2.436,4.301,4.801,6.479,7.064c9.095,9.451,18.232,18.861,27.334,28.307
	c4.205,4.364,5.073,9.448,2.402,13.623c-3.443,5.381-10.827,6.472-15.385,1.878c-9.155-9.229-18.078-18.689-27.085-28.066
	c-7.03-7.319-14.049-14.651-21.053-21.996c-0.837-0.879-1.737-1.338-2.988-1.334c-12.999,0.029-25.998,0.018-39.714,0.018
	c3.816,4.152,7.279,7.946,10.771,11.713c3.256,3.511,6.606,6.937,9.8,10.505c3.865,4.319,3.61,10.321-0.462,14.111
	c-4.099,3.814-10.053,3.746-14.103-0.503c-9.912-10.399-19.733-20.887-29.487-31.436c-2.447-2.648-4.764-4.971-8.77-4.941
	c-13.66,0.104-27.321,0.041-40.979,0.041c-0.281,1.149,0.611,1.517,1.117,2.035c21.345,21.882,42.706,43.748,64.066,65.615
	c0.718,0.734,1.627,1.355,2.129,2.214c3.404,5.825,8.902,6.515,14.931,6.633c20.058,0.395,40.114,0.959,60.167,1.562
	c7.164,0.215,11.197,4.317,10.984,10.765c-0.193,5.859-4.684,9.591-11.468,9.479c-2.162-0.035-4.322-0.217-6.484-0.278
	c-13.537-0.387-27.074-0.759-40.664-1.137c-0.19,1.999,1.279,2.611,2.151,3.507c13.929,14.298,27.925,28.53,41.847,42.836
	c5.538,5.691,4.366,13.729-2.445,16.733c-3.987,1.758-7.984,1.319-11.095-1.835c-13.293-13.482-26.457-27.091-39.687-40.635
	c-2.211-2.263-4.514-4.436-6.735-6.612c-0.978,0.425-0.714,1.202-0.733,1.832c-0.469,14.922-0.937,29.845-1.371,44.768
	c-0.182,6.257-4.248,10.27-10.402,10.172c-5.675-0.091-9.656-4.195-9.521-10.209c0.463-20.628,0.805-41.264,1.753-61.871
	c0.205-4.464-1.143-7.137-4.023-10.062c-21.765-22.11-43.405-44.341-65.069-66.55c-0.79-0.81-1.418-1.776-2.072-2.606
	c-1.475,0.998-0.991,1.999-0.993,2.811c-0.037,13.234,0.008,26.468-0.065,39.701c-0.011,1.983,0.575,3.301,2.066,4.693
	c11.005,10.271,21.914,20.645,32.804,31.039c4.981,4.754,5.4,10.743,1.208,15.109c-3.981,4.145-9.756,4.108-14.633-0.335
	c-6.988-6.368-13.849-12.876-20.776-19.337c-1.142,0.648-0.597,1.669-0.6,2.454c-0.043,11.522,0.04,23.046-0.089,34.567
	c-0.027,2.502,0.73,4.237,2.506,5.971c15.59,15.218,31.083,30.535,46.642,45.787c2.836,2.78,4.777,5.87,4.028,9.994
	c-0.709,3.908-2.996,6.713-6.805,7.853c-3.699,1.106-7.271,0.562-10.17-2.254c-4.254-4.134-8.432-8.347-12.666-12.503
	c-7.163-7.028-14.343-14.041-21.525-21.051c-0.452-0.442-0.988-0.8-1.953-1.569c0,1.676,0,2.77,0,3.863
	c0,18.14,0.007,36.279-0.004,54.419c-0.003,6.667-3.913,10.954-9.95,10.967c-6.053,0.012-9.998-4.25-10.006-10.913
	c-0.02-18.025-0.007-36.051-0.008-54.076c0-1.243,0-2.486,0-3.757c-1.783-0.407-2.315,1.027-3.119,1.804
	c-10.996,10.615-21.936,21.289-32.92,31.917c-4.042,3.911-9.027,4.774-13.072,2.389c-5.623-3.316-6.889-10.917-2.212-15.545
	c11.755-11.631,23.706-23.063,35.578-34.577c4.83-4.686,9.65-9.381,14.497-14.05c0.883-0.851,1.265-1.799,1.262-3.031
	c-0.034-12.435-0.03-24.87-0.053-37.305c-0.001-0.302-0.182-0.603-0.447-1.427c-3.356,3.074-6.513,5.924-9.623,8.822
	c-3.921,3.654-7.744,7.414-11.72,11.007c-4.518,4.083-10.572,3.907-14.388-0.264c-3.852-4.209-3.611-10.113,0.82-14.359
	c10.867-10.416,21.789-20.777,32.771-31.072c1.894-1.776,2.716-3.6,2.687-6.24c-0.136-12.32-0.049-24.642-0.078-36.963
	c-0.003-1.207,0.319-2.475-0.452-3.896c-2.862,1.814-4.847,4.438-7.084,6.739c-12.399,12.758-24.741,25.573-37.083,38.386
	c-8.543,8.87-17.021,17.804-25.62,26.62c-1.453,1.489-1.667,3.062-1.665,4.939c0.029,22.019,0.037,44.037,0.008,66.055
	c-0.009,6.714-3.911,11.159-9.762,11.303c-6.193,0.153-10.475-4.202-10.5-10.902c-0.053-14.603-0.017-29.205-0.017-43.809
	c0-1.236,0-2.472,0-3.562c-4.157,3.854-8.434,7.517-12.363,11.521c-11.264,11.476-22.337,23.141-33.596,34.623
	c-3.594,3.665-9.627,3.69-13.383,0.439c-4.109-3.558-4.79-9.055-1.609-13.522c0.789-1.108,1.732-2.117,2.68-3.099
	c14.179-14.687,28.373-29.361,42.556-44.044c0.53-0.548,0.998-1.158,1.956-2.278c-1.671,0-2.75,0-3.828,0
	c-14.717-0.001-29.434,0.04-44.151-0.024c-5.338-0.023-9.274-3.652-10.029-8.928c-0.602-4.208,2.405-8.92,6.623-10.499
	c1.666-0.623,3.372-0.5,5.072-0.501c20.877-0.014,41.755-0.018,62.633,0.007c1.866,0.002,3.454-0.144,4.923-1.671
	c23.55-24.503,47.163-48.946,70.754-73.411c0.29-0.3,0.482-0.694,1.11-1.618c-4.436,0-8.365,0.005-12.295,0
	c-11.294-0.018-22.589,0.01-33.882-0.106c-2.134-0.022-3.605,0.657-5.052,2.188c-10.342,10.939-20.732,21.832-31.169,32.68
	c-4.347,4.519-10.088,4.922-14.349,1.201c-4.522-3.949-4.673-10.324-0.174-15.151c5.676-6.089,11.493-12.048,17.221-18.09
	c0.756-0.798,1.819-1.396,2.048-2.643c-0.82-0.975-1.922-0.547-2.878-0.551c-11.408-0.046-22.817,0.009-34.225-0.114
	c-2.267-0.024-3.821,0.729-5.363,2.312c-15.681,16.094-31.425,32.128-47.145,48.185c-2.961,3.025-6.392,4.234-10.553,2.914
	c-3.844-1.219-6.137-3.867-6.921-7.738c-0.866-4.272,1.25-7.476,4.082-10.348c8.169-8.287,16.354-16.558,24.492-24.875
	c3.16-3.229,6.212-6.565,9.901-10.477c-5.491,0-10.217,0.008-14.944-0.001c-14.717-0.03-29.434-0.015-44.15-0.123
	c-7.648-0.056-12.368-6.439-10.102-13.423c1.411-4.349,5.193-6.846,10.714-6.812c17.904,0.108,35.807,0.287,53.71,0.436
	c1.201,0.01,2.402,0.001,4.612,0.001c-3.899-4.147-7.003-7.558-10.224-10.854c-7.893-8.078-15.888-16.057-23.748-24.167
	c-4.902-5.058-5.298-10.941-1.254-15.159c4.224-4.405,10.259-4.389,14.819,0.242c13.206,13.409,26.343,26.886,39.513,40.331
	c3.105,3.171,5.721,7.566,9.499,9.126c3.916,1.617,8.971,0.514,13.528,0.532c8.556,0.035,17.113,0.021,25.669,0.021
	c0.217,0,0.435-0.09,0.723-0.154c0.218-1.648-1.192-2.327-2.057-3.253c-5.607-5.999-11.343-11.878-16.887-17.935
	c-5.825-6.363-3.024-15.549,5.226-17.247c3.468-0.714,6.543,0.374,8.99,2.978c9.058,9.639,18.298,19.117,27.059,29.02
	c4.092,4.625,8.134,7.273,14.749,6.914c11.374-0.617,22.808-0.114,34.216-0.121c0.956,0,2.318,0.523,2.78-0.556
	c0.476-1.109-0.88-1.696-1.549-2.38c-15.62-15.996-31.272-31.96-46.901-47.948c-6.617-6.769-13.232-13.541-19.765-20.391
	c-1.453-1.523-2.964-2.122-5.077-2.171c-19.145-0.446-38.287-1.001-57.43-1.548c-3.414-0.098-6.826-0.29-10.238-0.463
	c-5.513-0.28-9.53-4.765-9.413-10.482c0.11-5.368,4.122-9.414,9.661-9.428c14.25-0.038,28.483,0.646,42.717,1.252
	c2.222,0.095,4.451,0.013,6.764,0.013c-0.271-1.53-1.363-2.09-2.119-2.869c-14.456-14.896-28.94-29.765-43.404-44.652
	c-3.539-3.643-4.286-7.792-2.22-11.873c1.934-3.82,5.887-5.947,10.165-5.496c2.772,0.292,4.817,1.79,6.708,3.728
	c14.657,15.022,29.347,30.015,44.046,44.997c0.771,0.787,1.35,1.844,2.589,2.192c0.83-0.865,0.389-1.937,0.42-2.882
	c0.487-14.808,0.908-29.618,1.403-44.426c0.183-5.472,4.604-9.692,9.971-9.689c5.56,0.002,10.074,4.319,9.927,9.997
	c-0.562,21.76-1.242,43.517-1.991,65.271c-0.073,2.118,0.841,3.379,2.155,4.72c11.342,11.562,22.674,23.135,33.971,34.741
	c10.74,11.033,21.444,22.1,32.13,33.183c1.086,1.126,1.944,2.472,2.876,3.672c1.693-1.429,1.243-2.53,1.246-3.474
	c0.036-12.777-0.03-25.556,0.077-38.332c0.02-2.282-0.752-3.825-2.358-5.337c-11.048-10.391-22.023-20.859-33.037-31.287
	c-4.75-4.497-5.294-10.477-1.301-14.832c3.863-4.213,10.365-4.127,14.955,0.187c6.398,6.013,12.799,12.021,19.212,18.018
	c0.555,0.518,0.979,1.293,1.949,1.238c0.877-0.684,0.506-1.672,0.508-2.519c0.028-11.751-0.023-23.502,0.062-35.252
	c0.015-2.003-0.605-3.414-2.031-4.781c-15.232-14.597-30.417-29.244-45.612-43.88c-1.232-1.187-2.511-2.337-3.645-3.614
	c-3.956-4.456-3.797-10.562,0.314-14.438c4.021-3.79,9.91-3.663,14.153,0.428c9.195,8.866,18.328,17.798,27.514,26.674
	c2.844,2.748,5.776,5.402,9.266,8.655c0-1.897,0-3.09,0-4.284c0-18.956-0.016-37.911,0.013-56.866
	c0.009-4.868,2.38-8.291,6.569-9.769c4.208-1.484,8.395-0.254,11.349,3.292c1.715,2.059,2.057,4.461,2.053,7.041
	c-0.03,18.596-0.024,37.192,0.003,55.788C374.869,99.844,374.529,101.111,375.215,102.308z"/>
</svg>
